# xmcd
#
# Track frame offsets:
# 150
# 18939
# 35483
# 54027
# 72560
# 89772
# 108183
# 123083
# 140013
# 159672
# 176488
# 191061
# 207015
# 224029
#
# Disc length: 3203 seconds
#
#
# Revision: 1
# Processed by: cddbd v1.5.1PL0 Copyright (c) Steve Scherf et al.
# Submitted via: FreeRIP 2.931 
#
DISCID=ca0c810e
DTITLE=Leonardo - Leonardo canta grandes sucessos
DYEAR=2004
DGENRE=Latin
TTITLE0=Uma lágrima
TTITLE1=Fantasias
TTITLE2=Pouco a pouco
TTITLE3=Vem me ajudar - Mar de rosas
TTITLE4=A Desconhecida
TTITLE5=Pedaço de Mau Caminho
TTITLE6=Meu mel
TTITLE7=Ninguém Vai Tirar Você de Mim
TTITLE8=Seresteiro das Noites - Meu Ex-Amor
TTITLE9=Perto dos olhos longe do coração
TTITLE10=Só mais uma vez
TTITLE11=Ainda Queima uma Esperança
TTITLE12=Última canção
TTITLE13=Solidão de amigos
EXTD=
EXTT0=
EXTT1=
EXTT2=
EXTT3=
EXTT4=
EXTT5=
EXTT6=
EXTT7=
EXTT8=
EXTT9=
EXTT10=
EXTT11=
EXTT12=
EXTT13=
PLAYORDER=
